<svg width="18" height="18" viewBox="0 0 18 18" fill="none" xmlns="http://www.w3.org/2000/svg">
<path fill-rule="evenodd" clip-rule="evenodd" d="M10.0575 9.00014L13.2825 5.78264C13.5765 5.48855 13.5765 5.01173 13.2825 4.71764C12.9884 4.42355 12.5115 4.42355 12.2175 4.71764L8.99996 7.94264L5.78245 4.71764C5.48836 4.42355 5.01155 4.42355 4.71745 4.71764C4.42336 5.01173 4.42336 5.48855 4.71745 5.78264L7.94246 9.00014L4.71745 12.2176C4.57547 12.3585 4.49561 12.5502 4.49561 12.7501C4.49561 12.9501 4.57547 13.1418 4.71745 13.2826C4.85828 13.4246 5.04998 13.5045 5.24995 13.5045C5.44993 13.5045 5.64163 13.4246 5.78245 13.2826L8.99996 10.0576L12.2175 13.2826C12.3583 13.4246 12.55 13.5045 12.75 13.5045C12.9499 13.5045 13.1416 13.4246 13.2825 13.2826C13.4244 13.1418 13.5043 12.9501 13.5043 12.7501C13.5043 12.5502 13.4244 12.3585 13.2825 12.2176L10.0575 9.00014Z" fill="#718096"/>
</svg>
